# xmcd
#
# Track frame offsets:
#	150
#	15515
#	33100
#	52363
#	65371
#	78691
#	91179
#	106643
#	121993
#	138076
#	149976
#	166909
#	180355
#	199936
#	216383
#	233905
#	244640
#	256940
#	274579
#	287756
#	303819
#	311927
#
# Disc length: 4370 seconds
#
# Revision: 1
# Processed by: cddbd v1.5.2PL0 Copyright (c) Steve Scherf et al.
# Submitted via: EasyCDDAExtractor 5.0.6
#
DISCID=39111016
DTITLE=Various Artist - Best of SA Country Vol 2 Disc 1
DYEAR=2007
DGENRE=Country
TTITLE0=Barbra Ray - Silver Threads and Golden Needles
TTITLE1=Ken Mullen - An Old Love
TTITLE2=Jody Wayne - Tell Me A
TTITLE3=Charles Jocobie - It's Who You Love
TTITLE4=Matt Hurter - Tequila Sunrise
TTITLE5=Lance James - The Door is Always Open
TTITLE6=Virginia Lee - Have I Told You Lately That I Love You
TTITLE7=Chrissy Jackson - Cheating
TTITLE8=Tommy Dell - Amanda
TTITLE9=Vangie Coker - Happy Birthday Dear Heartache
TTITLE10=Charles Dicks - Green to Blue
TTITLE11=Lee Magnum - The Story of My Life
TTITLE12=Kenny Oliver - Can't Win For Loosing You
TTITLE13=Gene and Duane - Growing Up Ain't Easy
TTITLE14=OTH - Tomorrow and Dreams
TTITLE15=Ray Chord - He'll Have to Go
TTITLE16=Johanna Field - Single Again
TTITLE17=Gerry Grayson and Debbie - Tears On the Telephone
TTITLE18=Billy Forest - 500 Miles from Home
TTITLE19=Bobby Angle - Stop and Smell the Roses
TTITLE20=Louis Shawson - Be My Lover
TTITLE21=Dave Weston - Give Her All the Roses
EXTD=
EXTT0=
EXTT1=
EXTT2=
EXTT3=
EXTT4=
EXTT5=
EXTT6=
EXTT7=
EXTT8=
EXTT9=
EXTT10=
EXTT11=
EXTT12=
EXTT13=
EXTT14=
EXTT15=
EXTT16=
EXTT17=
EXTT18=
EXTT19=
EXTT20=
EXTT21=
PLAYORDER=
